<?xml version="1.0" encoding="UTF-8" standalone="no"?>
<!DOCTYPE svg PUBLIC "-//W3C//DTD SVG 1.1//EN"
 "http://www.w3.org/Graphics/SVG/1.1/DTD/svg11.dtd">
<!-- Generated by graphviz version 2.40.1 (20161225.0304)
 -->
<!-- Title: structs Pages: 1 -->
<svg width="501pt" height="221pt"
 viewBox="0.00 0.00 501.14 221.00" xmlns="http://www.w3.org/2000/svg" xmlns:xlink="http://www.w3.org/1999/xlink">
<g id="graph0" class="graph" transform="scale(1 1) rotate(0) translate(4 217)">
<title>structs</title>
<polygon fill="#ffffff" stroke="transparent" points="-4,4 -4,-217 497.1362,-217 497.1362,4 -4,4"/>
<!-- 0 -->
<g id="node1" class="node">
<title>0</title>
<polygon fill="none" stroke="#000000" points="0,-176.5 0,-212.5 168.1826,-212.5 168.1826,-176.5 0,-176.5"/>
<text text-anchor="middle" x="28.812" y="-190.3" font-family="Times,serif" font-size="14.00" fill="#000000">Field A</text>
<polyline fill="none" stroke="#000000" points="57.624,-176.5 57.624,-212.5 "/>
<text text-anchor="middle" x="85.2637" y="-190.3" font-family="Times,serif" font-size="14.00" fill="#000000">Field 2</text>
<polyline fill="none" stroke="#000000" points="112.9033,-176.5 112.9033,-212.5 "/>
<text text-anchor="middle" x="140.543" y="-190.3" font-family="Times,serif" font-size="14.00" fill="#000000">Field 3</text>
</g>
<!-- 1 -->
<g id="node2" class="node">
<title>1</title>
<polygon fill="none" stroke="#000000" points="56.3945,-88.5 56.3945,-124.5 221.7881,-124.5 221.7881,-88.5 56.3945,-88.5"/>
<text text-anchor="middle" x="84.9946" y="-102.3" font-family="Times,serif" font-size="14.00" fill="#000000">Orange</text>
<polyline fill="none" stroke="#000000" points="113.5947,-88.5 113.5947,-124.5 "/>
<text text-anchor="middle" x="138.7017" y="-102.3" font-family="Times,serif" font-size="14.00" fill="#000000">Apple</text>
<polyline fill="none" stroke="#000000" points="163.8086,-88.5 163.8086,-124.5 "/>
<text text-anchor="middle" x="192.7983" y="-102.3" font-family="Times,serif" font-size="14.00" fill="#000000">Banana</text>
</g>
<!-- 0&#45;&gt;1 -->
<g id="edge1" class="edge">
<title>0:f2&#45;&gt;1:f1</title>
<path fill="none" stroke="#000000" d="M85.0913,-176.5C85.0913,-157.1806 85.0913,-149.9735 85.0913,-134.6284"/>
<polygon fill="#000000" stroke="#000000" points="88.5914,-134.5 85.0913,-124.5 81.5914,-134.5 88.5914,-134.5"/>
</g>
<!-- 2 -->
<g id="node3" class="node">
<title>2</title>
<polygon fill="none" stroke="#000000" points="69.3057,-.5 69.3057,-36.5 220.877,-36.5 220.877,-.5 69.3057,-.5"/>
<text text-anchor="middle" x="88.5815" y="-14.3" font-family="Times,serif" font-size="14.00" fill="#000000">Red</text>
<polyline fill="none" stroke="#000000" points="107.8574,-.5 107.8574,-36.5 "/>
<text text-anchor="middle" x="136.4575" y="-14.3" font-family="Times,serif" font-size="14.00" fill="#000000">Orange</text>
<polyline fill="none" stroke="#000000" points="165.0576,-.5 165.0576,-36.5 "/>
<text text-anchor="middle" x="192.9673" y="-14.3" font-family="Times,serif" font-size="14.00" fill="#000000">Yellow</text>
</g>
<!-- 1&#45;&gt;2 -->
<g id="edge2" class="edge">
<title>1:f1&#45;&gt;2:f2</title>
<path fill="none" stroke="#000000" d="M85.0913,-88.5C85.0913,-60.0487 124.4876,-66.4467 134.0289,-46.4355"/>
<polygon fill="#000000" stroke="#000000" points="137.4857,-47.0027 136.0913,-36.5 130.6318,-45.5799 137.4857,-47.0027"/>
</g>
<!-- 1&#45;&gt;2 -->
<g id="edge3" class="edge">
<title>1:f2&#45;&gt;2:f1</title>
<path fill="none" stroke="#000000" d="M139.0913,-88.5C139.0913,-60.0487 99.695,-66.4467 90.1537,-46.4355"/>
<polygon fill="#000000" stroke="#000000" points="93.5508,-45.5799 88.0913,-36.5 86.6969,-47.0027 93.5508,-45.5799"/>
</g>
<!-- 1&#45;&gt;2 -->
<g id="edge4" class="edge">
<title>1:f3&#45;&gt;2:f3</title>
<path fill="none" stroke="#000000" d="M193.0913,-88.5C193.0913,-69.1806 193.0913,-61.9735 193.0913,-46.6284"/>
<polygon fill="#000000" stroke="#000000" points="196.5914,-46.5 193.0913,-36.5 189.5914,-46.5 196.5914,-46.5"/>
</g>
<!-- struct1 -->
<g id="node4" class="node">
<title>struct1</title>
<polygon fill="none" stroke="#000000" points="248.1016,-176.5 248.1016,-212.5 380.0811,-212.5 380.0811,-176.5 248.1016,-176.5"/>
<text text-anchor="middle" x="265.4292" y="-190.3" font-family="Times,serif" font-size="14.00" fill="#000000">left</text>
<polyline fill="none" stroke="#000000" points="282.7568,-176.5 282.7568,-212.5 "/>
<text text-anchor="middle" x="310.1982" y="-190.3" font-family="Times,serif" font-size="14.00" fill="#000000">middle</text>
<polyline fill="none" stroke="#000000" points="337.6396,-176.5 337.6396,-212.5 "/>
<text text-anchor="middle" x="358.8604" y="-190.3" font-family="Times,serif" font-size="14.00" fill="#000000">right</text>
</g>
<!-- struct2 -->
<g id="node5" class="node">
<title>struct2</title>
<polygon fill="none" stroke="#000000" points="239.4844,-88.5 239.4844,-124.5 312.6982,-124.5 312.6982,-88.5 239.4844,-88.5"/>
<text text-anchor="middle" x="257.5913" y="-102.3" font-family="Times,serif" font-size="14.00" fill="#000000">one</text>
<polyline fill="none" stroke="#000000" points="275.6982,-88.5 275.6982,-124.5 "/>
<text text-anchor="middle" x="294.1982" y="-102.3" font-family="Times,serif" font-size="14.00" fill="#000000">two</text>
</g>
<!-- struct1&#45;&gt;struct2 -->
<g id="edge5" class="edge">
<title>struct1:f1&#45;&gt;struct2:f0</title>
<path fill="none" stroke="#000000" d="M310.0913,-176.5C310.0913,-147.3674 268.7853,-154.8641 259.1043,-134.3165"/>
<polygon fill="#000000" stroke="#000000" points="262.5288,-133.5931 257.0913,-124.5 255.6715,-134.9993 262.5288,-133.5931"/>
</g>
<!-- struct3 -->
<g id="node6" class="node">
<title>struct3</title>
<polygon fill="none" stroke="#000000" points="331.0464,-73.5 331.0464,-139.5 493.1362,-139.5 493.1362,-73.5 331.0464,-73.5"/>
<text text-anchor="middle" x="355.3774" y="-109.3" font-family="Times,serif" font-size="14.00" fill="#000000">hello</text>
<text text-anchor="middle" x="355.3774" y="-95.3" font-family="Times,serif" font-size="14.00" fill="#000000">world</text>
<polyline fill="none" stroke="#000000" points="379.7085,-73.5 379.7085,-139.5 "/>
<text text-anchor="middle" x="413.4224" y="-124.3" font-family="Times,serif" font-size="14.00" fill="#000000">b</text>
<polyline fill="none" stroke="#000000" points="379.7085,-117.5 447.1362,-117.5 "/>
<text text-anchor="middle" x="390.8154" y="-102.3" font-family="Times,serif" font-size="14.00" fill="#000000">c</text>
<polyline fill="none" stroke="#000000" points="401.9224,-95.5 401.9224,-117.5 "/>
<text text-anchor="middle" x="413.4224" y="-102.3" font-family="Times,serif" font-size="14.00" fill="#000000">d</text>
<polyline fill="none" stroke="#000000" points="424.9224,-95.5 424.9224,-117.5 "/>
<text text-anchor="middle" x="436.0293" y="-102.3" font-family="Times,serif" font-size="14.00" fill="#000000">e</text>
<polyline fill="none" stroke="#000000" points="379.7085,-95.5 447.1362,-95.5 "/>
<text text-anchor="middle" x="413.4224" y="-80.3" font-family="Times,serif" font-size="14.00" fill="#000000">f</text>
<polyline fill="none" stroke="#000000" points="447.1362,-73.5 447.1362,-139.5 "/>
<text text-anchor="middle" x="458.6362" y="-102.3" font-family="Times,serif" font-size="14.00" fill="#000000">g</text>
<polyline fill="none" stroke="#000000" points="470.1362,-73.5 470.1362,-139.5 "/>
<text text-anchor="middle" x="481.6362" y="-102.3" font-family="Times,serif" font-size="14.00" fill="#000000">h</text>
</g>
<!-- struct1&#45;&gt;struct3 -->
<g id="edge6" class="edge">
<title>struct1:f2&#45;&gt;struct3:here</title>
<path fill="none" stroke="#000000" d="M359.0913,-176.5C359.0913,-164.5628 379.0272,-141.289 394.6728,-124.8619"/>
<polygon fill="#000000" stroke="#000000" points="397.44,-127.0366 401.9025,-117.4273 392.4216,-122.1564 397.44,-127.0366"/>
</g>
</g>
</svg>
