<?xml version="1.0" encoding="UTF-8" standalone="no"?>
<!DOCTYPE svg PUBLIC "-//W3C//DTD SVG 1.1//EN"
 "http://www.w3.org/Graphics/SVG/1.1/DTD/svg11.dtd">
<!-- Generated by graphviz version 2.40.1 (20161225.0304)
 -->
<!-- Title: graph_name Pages: 1 -->
<svg width="404pt" height="397pt"
 viewBox="0.00 0.00 404.43 397.00" xmlns="http://www.w3.org/2000/svg" xmlns:xlink="http://www.w3.org/1999/xlink">
<g id="graph0" class="graph" transform="scale(1 1) rotate(0) translate(4 393)">
<title>graph_name</title>
<polygon fill="#ffffff" stroke="transparent" points="-4,4 -4,-393 400.4297,-393 400.4297,4 -4,4"/>
<text text-anchor="middle" x="198.2148" y="-370.6" font-family="Times,serif" font-size="18.00" fill="#000000">function call graph</text>
<!-- root_func -->
<g id="node1" class="node">
<title>root_func</title>
<polygon fill="#555555" stroke="#000000" points="237.4182,-363 159.0115,-363 159.0115,-327 237.4182,-327 237.4182,-363"/>
<text text-anchor="middle" x="198.2148" y="-340.2" font-family="Times,serif" font-size="16.00" fill="#ffffff">root_func</text>
</g>
<!-- grid_func -->
<g id="node2" class="node">
<title>grid_func</title>
<polygon fill="#555555" stroke="#000000" points="237.4182,-254 159.0115,-254 159.0115,-218 237.4182,-218 237.4182,-254"/>
<text text-anchor="middle" x="198.2148" y="-231.2" font-family="Times,serif" font-size="16.00" fill="#ffffff">grid_func</text>
</g>
<!-- root_func&#45;&gt;grid_func -->
<g id="edge1" class="edge">
<title>root_func&#45;&gt;grid_func</title>
<path fill="none" stroke="#000000" d="M198.2148,-326.5096C198.2148,-309.4952 198.2148,-284.0055 198.2148,-264.4076"/>
<polygon fill="#000000" stroke="#000000" points="201.7149,-264.2173 198.2148,-254.2173 194.7149,-264.2173 201.7149,-264.2173"/>
<text text-anchor="middle" x="295.4185" y="-286.3" font-family="Times,serif" font-size="14.00" fill="#000000">grid size(48x48), grid num(23x23)</text>
</g>
<!-- func_1 -->
<g id="node3" class="node">
<title>func_1</title>
<polygon fill="#555555" stroke="#000000" points="60.6461,-145 -.2164,-145 -.2164,-109 60.6461,-109 60.6461,-145"/>
<text text-anchor="middle" x="30.2148" y="-122.2" font-family="Times,serif" font-size="16.00" fill="#ffffff">func_1</text>
</g>
<!-- grid_func&#45;&gt;func_1 -->
<g id="edge2" class="edge">
<title>grid_func&#45;&gt;func_1</title>
<path fill="none" stroke="#000000" d="M170.0954,-217.7559C141.6633,-199.3088 97.5992,-170.7196 66.5381,-150.5669"/>
<polygon fill="#000000" stroke="#000000" points="68.44,-147.6287 58.146,-145.122 64.6299,-153.501 68.44,-147.6287"/>
<text text-anchor="middle" x="121.2148" y="-177.3" font-family="Times,serif" font-size="14.00" fill="#000000">x1</text>
</g>
<!-- func_2 -->
<g id="node4" class="node">
<title>func_2</title>
<polygon fill="#555555" stroke="#000000" points="228.6461,-145 167.7836,-145 167.7836,-109 228.6461,-109 228.6461,-145"/>
<text text-anchor="middle" x="198.2148" y="-122.2" font-family="Times,serif" font-size="16.00" fill="#ffffff">func_2</text>
</g>
<!-- grid_func&#45;&gt;func_2 -->
<g id="edge3" class="edge">
<title>grid_func&#45;&gt;func_2</title>
<path fill="none" stroke="#000000" d="M198.2148,-217.5096C198.2148,-200.4952 198.2148,-175.0055 198.2148,-155.4076"/>
<polygon fill="#000000" stroke="#000000" points="201.7149,-155.2173 198.2148,-145.2173 194.7149,-155.2173 201.7149,-155.2173"/>
<text text-anchor="middle" x="205.2148" y="-177.3" font-family="Times,serif" font-size="14.00" fill="#000000">x3</text>
</g>
<!-- func_3 -->
<g id="node7" class="node">
<title>func_3</title>
<polygon fill="#555555" stroke="#000000" points="396.6461,-145 335.7836,-145 335.7836,-109 396.6461,-109 396.6461,-145"/>
<text text-anchor="middle" x="366.2148" y="-122.2" font-family="Times,serif" font-size="16.00" fill="#ffffff">func_3</text>
</g>
<!-- grid_func&#45;&gt;func_3 -->
<g id="edge6" class="edge">
<title>grid_func&#45;&gt;func_3</title>
<path fill="none" stroke="#000000" d="M226.3343,-217.7559C254.7664,-199.3088 298.8305,-170.7196 329.8915,-150.5669"/>
<polygon fill="#000000" stroke="#000000" points="331.7997,-153.501 338.2837,-145.122 327.9897,-147.6287 331.7997,-153.501"/>
<text text-anchor="middle" x="289.2148" y="-177.3" font-family="Times,serif" font-size="14.00" fill="#000000">x1</text>
</g>
<!-- func_2_horizontal -->
<g id="node5" class="node">
<title>func_2_horizontal</title>
<polygon fill="#555555" stroke="#000000" points="149.0121,-36 15.4176,-36 15.4176,0 149.0121,0 149.0121,-36"/>
<text text-anchor="middle" x="82.2148" y="-13.2" font-family="Times,serif" font-size="16.00" fill="#ffffff">func_2_horizontal</text>
</g>
<!-- func_2&#45;&gt;func_2_horizontal -->
<g id="edge4" class="edge">
<title>func_2&#45;&gt;func_2_horizontal</title>
<path fill="none" stroke="#000000" d="M178.7991,-108.7559C159.7282,-90.8358 130.4716,-63.3447 109.1548,-43.3142"/>
<polygon fill="#000000" stroke="#000000" points="111.3783,-40.6008 101.694,-36.3037 106.5848,-45.7021 111.3783,-40.6008"/>
<text text-anchor="middle" x="188.2202" y="-68.3" font-family="Times,serif" font-size="14.00" fill="#000000">horizontal access</text>
</g>
<!-- func_2_vertical -->
<g id="node6" class="node">
<title>func_2_vertical</title>
<polygon fill="#555555" stroke="#000000" points="373.614,-36 256.8157,-36 256.8157,0 373.614,0 373.614,-36"/>
<text text-anchor="middle" x="315.2148" y="-13.2" font-family="Times,serif" font-size="16.00" fill="#ffffff">func_2_vertical</text>
</g>
<!-- func_2&#45;&gt;func_2_vertical -->
<g id="edge5" class="edge">
<title>func_2&#45;&gt;func_2_vertical</title>
<path fill="none" stroke="#000000" d="M217.798,-108.7559C237.0333,-90.8358 266.5421,-63.3447 288.0427,-43.3142"/>
<polygon fill="#000000" stroke="#000000" points="290.6368,-45.6811 295.5678,-36.3037 285.8652,-40.5593 290.6368,-45.6811"/>
<text text-anchor="middle" x="297.8271" y="-68.3" font-family="Times,serif" font-size="14.00" fill="#000000">vertical access</text>
</g>
</g>
</svg>
