<?xml version="1.0" encoding="UTF-8" standalone="no"?>
<!DOCTYPE svg PUBLIC "-//W3C//DTD SVG 1.1//EN"
 "http://www.w3.org/Graphics/SVG/1.1/DTD/svg11.dtd">
<!-- Generated by graphviz version 2.40.1 (20161225.0304)
 -->
<!-- Title: graph_name Pages: 1 -->
<svg width="636pt" height="413pt"
 viewBox="0.00 0.00 636.08 413.00" xmlns="http://www.w3.org/2000/svg" xmlns:xlink="http://www.w3.org/1999/xlink">
<g id="graph0" class="graph" transform="scale(1 1) rotate(0) translate(4 409)">
<title>graph_name</title>
<polygon fill="#ffffff" stroke="transparent" points="-4,4 -4,-409 632.082,-409 632.082,4 -4,4"/>
<text text-anchor="middle" x="314.041" y="-386.6" font-family="Times,serif" font-size="18.00" fill="#000000">function call graph</text>
<!-- root_func -->
<g id="node1" class="node">
<title>root_func</title>
<polygon fill="#a0ffa0" stroke="#000000" points="274.8675,-377 196.4607,-377 196.4607,-341 274.8675,-341 274.8675,-377"/>
<text text-anchor="middle" x="235.6641" y="-354.2" font-family="Times,serif" font-size="16.00" fill="#000000">root_func</text>
</g>
<!-- grid_func -->
<g id="node2" class="node">
<title>grid_func</title>
<polygon fill="#a0ffa0" stroke="#000000" points="317.8831,-266 153.4451,-266 153.4451,-226 317.8831,-226 317.8831,-266"/>
<text text-anchor="middle" x="235.6641" y="-249.2" font-family="Times,serif" font-size="16.00" fill="#000000">grid_func</text>
<text text-anchor="middle" x="235.6641" y="-233.2" font-family="Times,serif" font-size="16.00" fill="#000000">(10ms+30ms*3+30ms)</text>
</g>
<!-- root_func&#45;&gt;grid_func -->
<g id="edge1" class="edge">
<title>root_func&#45;&gt;grid_func</title>
<path fill="none" stroke="#000000" d="M235.6641,-340.8446C235.6641,-323.4189 235.6641,-296.7795 235.6641,-276.1651"/>
<polygon fill="#000000" stroke="#000000" points="239.1642,-276.015 235.6641,-266.0151 232.1642,-276.0151 239.1642,-276.015"/>
<text text-anchor="middle" x="332.8677" y="-298.3" font-family="Times,serif" font-size="14.00" fill="#000000">grid size(48x48), grid num(23x23)</text>
</g>
<!-- func_1 -->
<g id="node3" class="node">
<title>func_1</title>
<polygon fill="#a0ffa0" stroke="#000000" points="61.4931,-153 -.1649,-153 -.1649,-113 61.4931,-113 61.4931,-153"/>
<text text-anchor="middle" x="30.6641" y="-136.2" font-family="Times,serif" font-size="16.00" fill="#000000">func_1</text>
<text text-anchor="middle" x="30.6641" y="-120.2" font-family="Times,serif" font-size="16.00" fill="#000000">(10ms)</text>
</g>
<!-- grid_func&#45;&gt;func_1 -->
<g id="edge2" class="edge">
<title>grid_func&#45;&gt;func_1</title>
<path fill="none" stroke="#000000" d="M199.0142,-225.7979C162.9167,-205.9002 107.9235,-175.5869 70.6981,-155.0675"/>
<polygon fill="#000000" stroke="#000000" points="72.0864,-151.8363 61.6391,-150.0741 68.7072,-157.9667 72.0864,-151.8363"/>
<text text-anchor="middle" x="164.3779" y="-185.3" font-family="Times,serif" font-size="14.00" fill="#000000">x1 per grid</text>
</g>
<!-- func_2 -->
<g id="node4" class="node">
<title>func_2</title>
<polygon fill="#a0ffa0" stroke="#000000" points="266.4931,-153 204.8351,-153 204.8351,-113 266.4931,-113 266.4931,-153"/>
<text text-anchor="middle" x="235.6641" y="-136.2" font-family="Times,serif" font-size="16.00" fill="#000000">func_2</text>
<text text-anchor="middle" x="235.6641" y="-120.2" font-family="Times,serif" font-size="16.00" fill="#000000">(20ms)</text>
</g>
<!-- grid_func&#45;&gt;func_2 -->
<g id="edge3" class="edge">
<title>grid_func&#45;&gt;func_2</title>
<path fill="none" stroke="#000000" d="M235.6641,-225.7979C235.6641,-208.3631 235.6641,-182.9316 235.6641,-163.099"/>
<polygon fill="#000000" stroke="#000000" points="239.1642,-163.0272 235.6641,-153.0272 232.1642,-163.0273 239.1642,-163.0272"/>
<text text-anchor="middle" x="266.3779" y="-185.3" font-family="Times,serif" font-size="14.00" fill="#000000">x3 per grid</text>
</g>
<!-- func_3 -->
<g id="node7" class="node">
<title>func_3</title>
<polygon fill="#ffa0a0" stroke="#000000" points="471.4931,-153 409.8351,-153 409.8351,-113 471.4931,-113 471.4931,-153"/>
<text text-anchor="middle" x="440.6641" y="-136.2" font-family="Times,serif" font-size="16.00" fill="#000000">func_3</text>
<text text-anchor="middle" x="440.6641" y="-120.2" font-family="Times,serif" font-size="16.00" fill="#000000">(30ms)</text>
</g>
<!-- grid_func&#45;&gt;func_3 -->
<g id="edge6" class="edge">
<title>grid_func&#45;&gt;func_3</title>
<path fill="none" stroke="#b81324" stroke-width="3" d="M272.314,-225.7979C308.4115,-205.9002 363.4046,-175.5869 400.63,-155.0675"/>
<polygon fill="#b81324" stroke="#b81324" stroke-width="3" points="402.6209,-157.9667 409.689,-150.0741 399.2417,-151.8363 402.6209,-157.9667"/>
<text text-anchor="middle" x="404.9453" y="-185.3" font-family="Times,serif" font-size="14.00" fill="#b81324">x1 per grid [bottleneck]</text>
</g>
<!-- func_2_horizontal -->
<g id="node5" class="node">
<title>func_2_horizontal</title>
<polygon fill="#a0ffa0" stroke="#000000" points="168.4613,-40 34.8669,-40 34.8669,0 168.4613,0 168.4613,-40"/>
<text text-anchor="middle" x="101.6641" y="-23.2" font-family="Times,serif" font-size="16.00" fill="#000000">func_2_horizontal</text>
<text text-anchor="middle" x="101.6641" y="-7.2" font-family="Times,serif" font-size="16.00" fill="#000000">(5ms)</text>
</g>
<!-- func_2&#45;&gt;func_2_horizontal -->
<g id="edge4" class="edge">
<title>func_2&#45;&gt;func_2_horizontal</title>
<path fill="none" stroke="#000000" d="M211.7075,-112.7979C189.7941,-94.3186 157.2276,-66.8558 133.2048,-46.5978"/>
<polygon fill="#000000" stroke="#000000" points="135.3142,-43.7983 125.4132,-40.0272 130.8015,-49.1495 135.3142,-43.7983"/>
<text text-anchor="middle" x="216.6694" y="-72.3" font-family="Times,serif" font-size="14.00" fill="#000000">horizontal access</text>
</g>
<!-- func_2_vertical -->
<g id="node6" class="node">
<title>func_2_vertical</title>
<polygon fill="#a0ffa0" stroke="#000000" points="429.0632,-40 312.2649,-40 312.2649,0 429.0632,0 429.0632,-40"/>
<text text-anchor="middle" x="370.6641" y="-23.2" font-family="Times,serif" font-size="16.00" fill="#000000">func_2_vertical</text>
<text text-anchor="middle" x="370.6641" y="-7.2" font-family="Times,serif" font-size="16.00" fill="#000000">(15ms)</text>
</g>
<!-- func_2&#45;&gt;func_2_vertical -->
<g id="edge5" class="edge">
<title>func_2&#45;&gt;func_2_vertical</title>
<path fill="none" stroke="#000000" d="M259.7994,-112.7979C281.8763,-94.3186 314.6859,-66.8558 338.888,-46.5978"/>
<polygon fill="#000000" stroke="#000000" points="341.316,-49.1297 346.7377,-40.0272 336.823,-43.762 341.316,-49.1297"/>
<text text-anchor="middle" x="344.2764" y="-72.3" font-family="Times,serif" font-size="14.00" fill="#000000">vertical access</text>
</g>
<!-- comment -->
<g id="node8" class="node">
<title>comment</title>
<polygon fill="#fbdb0c" stroke="#000000" points="622.0001,-379 419.3281,-379 419.3281,-339 628.0001,-339 628.0001,-373 622.0001,-379"/>
<polyline fill="none" stroke="#000000" points="622.0001,-379 622.0001,-373 "/>
<polyline fill="none" stroke="#000000" points="628.0001,-373 622.0001,-373 "/>
<text text-anchor="middle" x="523.6641" y="-362.2" font-family="Times,serif" font-size="16.00" fill="#000000">() means total processing time</text>
<text text-anchor="middle" x="523.6641" y="-346.2" font-family="Times,serif" font-size="16.00" fill="#000000">(entire grids)</text>
</g>
</g>
</svg>
