<?xml version="1.0" encoding="UTF-8" standalone="no"?>
<!DOCTYPE svg PUBLIC "-//W3C//DTD SVG 1.1//EN"
 "http://www.w3.org/Graphics/SVG/1.1/DTD/svg11.dtd">
<!-- Generated by graphviz version 2.40.1 (20161225.0304)
 -->
<!-- Title: structs Pages: 1 -->
<svg width="593pt" height="506pt"
 viewBox="0.00 0.00 592.56 506.00" xmlns="http://www.w3.org/2000/svg" xmlns:xlink="http://www.w3.org/1999/xlink">
<g id="graph0" class="graph" transform="scale(1 1) rotate(0) translate(4 502)">
<title>structs</title>
<polygon fill="#ffffff" stroke="transparent" points="-4,4 -4,-502 588.5571,-502 588.5571,4 -4,4"/>
<!-- lane_a -->
<g id="node1" class="node">
<title>lane_a</title>
<polygon fill="none" stroke="#000000" points="36.5313,-303.5 36.5313,-339.5 192.5313,-339.5 192.5313,-303.5 36.5313,-303.5"/>
<text text-anchor="middle" x="46.2813" y="-317.3" font-family="Times,serif" font-size="14.00" fill="#000000"> </text>
<polyline fill="none" stroke="#000000" points="56.0313,-303.5 56.0313,-339.5 "/>
<text text-anchor="middle" x="65.7813" y="-317.3" font-family="Times,serif" font-size="14.00" fill="#000000"> </text>
<polyline fill="none" stroke="#000000" points="75.5313,-303.5 75.5313,-339.5 "/>
<text text-anchor="middle" x="85.2813" y="-317.3" font-family="Times,serif" font-size="14.00" fill="#000000"> </text>
<polyline fill="none" stroke="#000000" points="95.0313,-303.5 95.0313,-339.5 "/>
<text text-anchor="middle" x="104.7813" y="-317.3" font-family="Times,serif" font-size="14.00" fill="#000000"> </text>
<polyline fill="none" stroke="#000000" points="114.5313,-303.5 114.5313,-339.5 "/>
<text text-anchor="middle" x="124.2813" y="-317.3" font-family="Times,serif" font-size="14.00" fill="#000000"> </text>
<polyline fill="none" stroke="#000000" points="134.0313,-303.5 134.0313,-339.5 "/>
<text text-anchor="middle" x="143.7813" y="-317.3" font-family="Times,serif" font-size="14.00" fill="#000000"> </text>
<polyline fill="none" stroke="#000000" points="153.5313,-303.5 153.5313,-339.5 "/>
<text text-anchor="middle" x="163.2813" y="-317.3" font-family="Times,serif" font-size="14.00" fill="#000000"> </text>
<polyline fill="none" stroke="#000000" points="173.0313,-303.5 173.0313,-339.5 "/>
<text text-anchor="middle" x="182.7813" y="-317.3" font-family="Times,serif" font-size="14.00" fill="#000000"> </text>
<text text-anchor="middle" x="18.2656" y="-342.8" font-family="Times,serif" font-size="14.00" fill="#000000">lane_a</text>
</g>
<!-- op_abc -->
<g id="node4" class="node">
<title>op_abc</title>
<path fill="#d3d3d3" stroke="#000000" d="M192.5313,-103C192.5313,-103 183.5313,-97 183.5313,-97 179.0313,-94 179.0313,-88 183.5313,-85 183.5313,-85 192.5313,-79 192.5313,-79 197.0313,-76 206.0313,-76 210.5313,-79 210.5313,-79 219.5313,-85 219.5313,-85 224.0313,-88 224.0313,-94 219.5313,-97 219.5313,-97 210.5313,-103 210.5313,-103 206.0313,-106 197.0313,-106 192.5313,-103"/>
<text text-anchor="middle" x="201.5313" y="-86.8" font-family="Times,serif" font-size="14.00" fill="#000000">+</text>
</g>
<!-- lane_a&#45;&gt;op_abc -->
<g id="edge1" class="edge">
<title>lane_a&#45;&gt;op_abc</title>
<path fill="none" stroke="#000000" d="M121.358,-303.4131C136.8875,-262.2689 174.8654,-161.6492 192.3929,-115.2114"/>
<polygon fill="#000000" stroke="#000000" points="195.7435,-116.2457 196.0002,-105.654 189.1944,-113.7738 195.7435,-116.2457"/>
</g>
<!-- lane_b -->
<g id="node2" class="node">
<title>lane_b</title>
<polygon fill="none" stroke="#000000" points="210.5313,-303.5 210.5313,-339.5 366.5313,-339.5 366.5313,-303.5 210.5313,-303.5"/>
<text text-anchor="middle" x="220.2813" y="-317.3" font-family="Times,serif" font-size="14.00" fill="#000000"> </text>
<polyline fill="none" stroke="#000000" points="230.0313,-303.5 230.0313,-339.5 "/>
<text text-anchor="middle" x="239.7813" y="-317.3" font-family="Times,serif" font-size="14.00" fill="#000000"> </text>
<polyline fill="none" stroke="#000000" points="249.5313,-303.5 249.5313,-339.5 "/>
<text text-anchor="middle" x="259.2813" y="-317.3" font-family="Times,serif" font-size="14.00" fill="#000000"> </text>
<polyline fill="none" stroke="#000000" points="269.0313,-303.5 269.0313,-339.5 "/>
<text text-anchor="middle" x="278.7813" y="-317.3" font-family="Times,serif" font-size="14.00" fill="#000000"> </text>
<polyline fill="none" stroke="#000000" points="288.5313,-303.5 288.5313,-339.5 "/>
<text text-anchor="middle" x="298.2813" y="-317.3" font-family="Times,serif" font-size="14.00" fill="#000000"> </text>
<polyline fill="none" stroke="#000000" points="308.0313,-303.5 308.0313,-339.5 "/>
<text text-anchor="middle" x="317.7813" y="-317.3" font-family="Times,serif" font-size="14.00" fill="#000000"> </text>
<polyline fill="none" stroke="#000000" points="327.5313,-303.5 327.5313,-339.5 "/>
<text text-anchor="middle" x="337.2813" y="-317.3" font-family="Times,serif" font-size="14.00" fill="#000000"> </text>
<polyline fill="none" stroke="#000000" points="347.0313,-303.5 347.0313,-339.5 "/>
<text text-anchor="middle" x="356.7813" y="-317.3" font-family="Times,serif" font-size="14.00" fill="#000000"> </text>
<text text-anchor="middle" x="191.8726" y="-342.8" font-family="Times,serif" font-size="14.00" fill="#000000">lane_b</text>
</g>
<!-- lane_b&#45;&gt;op_abc -->
<g id="edge2" class="edge">
<title>lane_b&#45;&gt;op_abc</title>
<path fill="none" stroke="#000000" d="M281.7045,-303.4131C266.175,-262.2689 228.1971,-161.6492 210.6696,-115.2114"/>
<polygon fill="#000000" stroke="#000000" points="213.8681,-113.7738 207.0623,-105.654 207.319,-116.2457 213.8681,-113.7738"/>
</g>
<!-- lane_c -->
<g id="node3" class="node">
<title>lane_c</title>
<polygon fill="none" stroke="#000000" points="123.5313,-.5 123.5313,-36.5 279.5313,-36.5 279.5313,-.5 123.5313,-.5"/>
<text text-anchor="middle" x="133.2813" y="-14.3" font-family="Times,serif" font-size="14.00" fill="#000000"> </text>
<polyline fill="none" stroke="#000000" points="143.0313,-.5 143.0313,-36.5 "/>
<text text-anchor="middle" x="152.7813" y="-14.3" font-family="Times,serif" font-size="14.00" fill="#000000"> </text>
<polyline fill="none" stroke="#000000" points="162.5313,-.5 162.5313,-36.5 "/>
<text text-anchor="middle" x="172.2813" y="-14.3" font-family="Times,serif" font-size="14.00" fill="#000000"> </text>
<polyline fill="none" stroke="#000000" points="182.0313,-.5 182.0313,-36.5 "/>
<text text-anchor="middle" x="191.7813" y="-14.3" font-family="Times,serif" font-size="14.00" fill="#000000"> </text>
<polyline fill="none" stroke="#000000" points="201.5313,-.5 201.5313,-36.5 "/>
<text text-anchor="middle" x="211.2813" y="-14.3" font-family="Times,serif" font-size="14.00" fill="#000000"> </text>
<polyline fill="none" stroke="#000000" points="221.0313,-.5 221.0313,-36.5 "/>
<text text-anchor="middle" x="230.7813" y="-14.3" font-family="Times,serif" font-size="14.00" fill="#000000"> </text>
<polyline fill="none" stroke="#000000" points="240.5313,-.5 240.5313,-36.5 "/>
<text text-anchor="middle" x="250.2813" y="-14.3" font-family="Times,serif" font-size="14.00" fill="#000000"> </text>
<polyline fill="none" stroke="#000000" points="260.0313,-.5 260.0313,-36.5 "/>
<text text-anchor="middle" x="269.7813" y="-14.3" font-family="Times,serif" font-size="14.00" fill="#000000"> </text>
<text text-anchor="middle" x="105.2656" y="-39.8" font-family="Times,serif" font-size="14.00" fill="#000000">lane_c</text>
</g>
<!-- op_abc&#45;&gt;lane_c -->
<g id="edge3" class="edge">
<title>op_abc&#45;&gt;lane_c</title>
<path fill="none" stroke="#000000" d="M201.5313,-72.7052C201.5313,-64.832 201.5313,-55.4471 201.5313,-46.7167"/>
<polygon fill="#000000" stroke="#000000" points="205.0313,-46.5378 201.5313,-36.5378 198.0313,-46.5378 205.0313,-46.5378"/>
</g>
<!-- grid -->
<g id="node5" class="node">
<title>grid</title>
<polygon fill="none" stroke="#000000" points="384.5054,-145.5 384.5054,-497.5 584.5571,-497.5 584.5571,-145.5 384.5054,-145.5"/>
<text text-anchor="middle" x="394.4502" y="-482.3" font-family="Times,serif" font-size="14.00" fill="#000000"> </text>
<polyline fill="none" stroke="#000000" points="384.5054,-475.5 404.395,-475.5 "/>
<text text-anchor="middle" x="394.4502" y="-460.3" font-family="Times,serif" font-size="14.00" fill="#000000">l</text>
<polyline fill="none" stroke="#000000" points="384.5054,-453.5 404.395,-453.5 "/>
<text text-anchor="middle" x="394.4502" y="-438.3" font-family="Times,serif" font-size="14.00" fill="#000000"> </text>
<polyline fill="none" stroke="#000000" points="384.5054,-431.5 404.395,-431.5 "/>
<text text-anchor="middle" x="394.4502" y="-416.3" font-family="Times,serif" font-size="14.00" fill="#000000"> </text>
<polyline fill="none" stroke="#000000" points="384.5054,-409.5 404.395,-409.5 "/>
<text text-anchor="middle" x="394.4502" y="-394.3" font-family="Times,serif" font-size="14.00" fill="#000000"> </text>
<polyline fill="none" stroke="#000000" points="384.5054,-387.5 404.395,-387.5 "/>
<text text-anchor="middle" x="394.4502" y="-372.3" font-family="Times,serif" font-size="14.00" fill="#000000"> </text>
<polyline fill="none" stroke="#000000" points="384.5054,-365.5 404.395,-365.5 "/>
<text text-anchor="middle" x="394.4502" y="-350.3" font-family="Times,serif" font-size="14.00" fill="#000000"> </text>
<polyline fill="none" stroke="#000000" points="384.5054,-343.5 404.395,-343.5 "/>
<text text-anchor="middle" x="394.4502" y="-328.3" font-family="Times,serif" font-size="14.00" fill="#000000"> </text>
<polyline fill="none" stroke="#000000" points="384.5054,-321.5 404.395,-321.5 "/>
<text text-anchor="middle" x="394.4502" y="-306.3" font-family="Times,serif" font-size="14.00" fill="#000000"> </text>
<polyline fill="none" stroke="#000000" points="384.5054,-299.5 404.395,-299.5 "/>
<text text-anchor="middle" x="394.4502" y="-284.3" font-family="Times,serif" font-size="14.00" fill="#000000"> </text>
<polyline fill="none" stroke="#000000" points="384.5054,-277.5 404.395,-277.5 "/>
<text text-anchor="middle" x="394.4502" y="-262.3" font-family="Times,serif" font-size="14.00" fill="#000000"> </text>
<polyline fill="none" stroke="#000000" points="384.5054,-255.5 404.395,-255.5 "/>
<text text-anchor="middle" x="394.4502" y="-240.3" font-family="Times,serif" font-size="14.00" fill="#000000"> </text>
<polyline fill="none" stroke="#000000" points="384.5054,-233.5 404.395,-233.5 "/>
<text text-anchor="middle" x="394.4502" y="-218.3" font-family="Times,serif" font-size="14.00" fill="#000000"> </text>
<polyline fill="none" stroke="#000000" points="384.5054,-211.5 404.395,-211.5 "/>
<text text-anchor="middle" x="394.4502" y="-196.3" font-family="Times,serif" font-size="14.00" fill="#000000"> </text>
<polyline fill="none" stroke="#000000" points="384.5054,-189.5 404.395,-189.5 "/>
<text text-anchor="middle" x="394.4502" y="-174.3" font-family="Times,serif" font-size="14.00" fill="#000000"> </text>
<polyline fill="none" stroke="#000000" points="384.5054,-167.5 404.395,-167.5 "/>
<text text-anchor="middle" x="394.4502" y="-152.3" font-family="Times,serif" font-size="14.00" fill="#000000"> </text>
<polyline fill="none" stroke="#000000" points="404.395,-145.5 404.395,-497.5 "/>
<text text-anchor="middle" x="415.895" y="-482.3" font-family="Times,serif" font-size="14.00" fill="#000000">u</text>
<polyline fill="none" stroke="#000000" points="404.395,-475.5 427.395,-475.5 "/>
<text text-anchor="middle" x="415.895" y="-460.3" font-family="Times,serif" font-size="14.00" fill="#000000"> </text>
<polyline fill="none" stroke="#000000" points="404.395,-453.5 427.395,-453.5 "/>
<text text-anchor="middle" x="415.895" y="-438.3" font-family="Times,serif" font-size="14.00" fill="#000000">d</text>
<polyline fill="none" stroke="#000000" points="404.395,-431.5 427.395,-431.5 "/>
<text text-anchor="middle" x="415.895" y="-416.3" font-family="Times,serif" font-size="14.00" fill="#000000"> </text>
<polyline fill="none" stroke="#000000" points="404.395,-409.5 427.395,-409.5 "/>
<text text-anchor="middle" x="415.895" y="-394.3" font-family="Times,serif" font-size="14.00" fill="#000000"> </text>
<polyline fill="none" stroke="#000000" points="404.395,-387.5 427.395,-387.5 "/>
<text text-anchor="middle" x="415.895" y="-372.3" font-family="Times,serif" font-size="14.00" fill="#000000"> </text>
<polyline fill="none" stroke="#000000" points="404.395,-365.5 427.395,-365.5 "/>
<text text-anchor="middle" x="415.895" y="-350.3" font-family="Times,serif" font-size="14.00" fill="#000000"> </text>
<polyline fill="none" stroke="#000000" points="404.395,-343.5 427.395,-343.5 "/>
<text text-anchor="middle" x="415.895" y="-328.3" font-family="Times,serif" font-size="14.00" fill="#000000"> </text>
<polyline fill="none" stroke="#000000" points="404.395,-321.5 427.395,-321.5 "/>
<text text-anchor="middle" x="415.895" y="-306.3" font-family="Times,serif" font-size="14.00" fill="#000000"> </text>
<polyline fill="none" stroke="#000000" points="404.395,-299.5 427.395,-299.5 "/>
<text text-anchor="middle" x="415.895" y="-284.3" font-family="Times,serif" font-size="14.00" fill="#000000"> </text>
<polyline fill="none" stroke="#000000" points="404.395,-277.5 427.395,-277.5 "/>
<text text-anchor="middle" x="415.895" y="-262.3" font-family="Times,serif" font-size="14.00" fill="#000000"> </text>
<polyline fill="none" stroke="#000000" points="404.395,-255.5 427.395,-255.5 "/>
<text text-anchor="middle" x="415.895" y="-240.3" font-family="Times,serif" font-size="14.00" fill="#000000"> </text>
<polyline fill="none" stroke="#000000" points="404.395,-233.5 427.395,-233.5 "/>
<text text-anchor="middle" x="415.895" y="-218.3" font-family="Times,serif" font-size="14.00" fill="#000000"> </text>
<polyline fill="none" stroke="#000000" points="404.395,-211.5 427.395,-211.5 "/>
<text text-anchor="middle" x="415.895" y="-196.3" font-family="Times,serif" font-size="14.00" fill="#000000"> </text>
<polyline fill="none" stroke="#000000" points="404.395,-189.5 427.395,-189.5 "/>
<text text-anchor="middle" x="415.895" y="-174.3" font-family="Times,serif" font-size="14.00" fill="#000000"> </text>
<polyline fill="none" stroke="#000000" points="404.395,-167.5 427.395,-167.5 "/>
<text text-anchor="middle" x="415.895" y="-152.3" font-family="Times,serif" font-size="14.00" fill="#000000"> </text>
<polyline fill="none" stroke="#000000" points="427.395,-145.5 427.395,-497.5 "/>
<text text-anchor="middle" x="437.7261" y="-482.3" font-family="Times,serif" font-size="14.00" fill="#000000"> </text>
<polyline fill="none" stroke="#000000" points="427.395,-475.5 448.0571,-475.5 "/>
<text text-anchor="middle" x="437.7261" y="-460.3" font-family="Times,serif" font-size="14.00" fill="#000000">r</text>
<polyline fill="none" stroke="#000000" points="427.395,-453.5 448.0571,-453.5 "/>
<text text-anchor="middle" x="437.7261" y="-438.3" font-family="Times,serif" font-size="14.00" fill="#000000"> </text>
<polyline fill="none" stroke="#000000" points="427.395,-431.5 448.0571,-431.5 "/>
<text text-anchor="middle" x="437.7261" y="-416.3" font-family="Times,serif" font-size="14.00" fill="#000000"> </text>
<polyline fill="none" stroke="#000000" points="427.395,-409.5 448.0571,-409.5 "/>
<text text-anchor="middle" x="437.7261" y="-394.3" font-family="Times,serif" font-size="14.00" fill="#000000"> </text>
<polyline fill="none" stroke="#000000" points="427.395,-387.5 448.0571,-387.5 "/>
<text text-anchor="middle" x="437.7261" y="-372.3" font-family="Times,serif" font-size="14.00" fill="#000000"> </text>
<polyline fill="none" stroke="#000000" points="427.395,-365.5 448.0571,-365.5 "/>
<text text-anchor="middle" x="437.7261" y="-350.3" font-family="Times,serif" font-size="14.00" fill="#000000"> </text>
<polyline fill="none" stroke="#000000" points="427.395,-343.5 448.0571,-343.5 "/>
<text text-anchor="middle" x="437.7261" y="-328.3" font-family="Times,serif" font-size="14.00" fill="#000000"> </text>
<polyline fill="none" stroke="#000000" points="427.395,-321.5 448.0571,-321.5 "/>
<text text-anchor="middle" x="437.7261" y="-306.3" font-family="Times,serif" font-size="14.00" fill="#000000"> </text>
<polyline fill="none" stroke="#000000" points="427.395,-299.5 448.0571,-299.5 "/>
<text text-anchor="middle" x="437.7261" y="-284.3" font-family="Times,serif" font-size="14.00" fill="#000000"> </text>
<polyline fill="none" stroke="#000000" points="427.395,-277.5 448.0571,-277.5 "/>
<text text-anchor="middle" x="437.7261" y="-262.3" font-family="Times,serif" font-size="14.00" fill="#000000"> </text>
<polyline fill="none" stroke="#000000" points="427.395,-255.5 448.0571,-255.5 "/>
<text text-anchor="middle" x="437.7261" y="-240.3" font-family="Times,serif" font-size="14.00" fill="#000000"> </text>
<polyline fill="none" stroke="#000000" points="427.395,-233.5 448.0571,-233.5 "/>
<text text-anchor="middle" x="437.7261" y="-218.3" font-family="Times,serif" font-size="14.00" fill="#000000"> </text>
<polyline fill="none" stroke="#000000" points="427.395,-211.5 448.0571,-211.5 "/>
<text text-anchor="middle" x="437.7261" y="-196.3" font-family="Times,serif" font-size="14.00" fill="#000000"> </text>
<polyline fill="none" stroke="#000000" points="427.395,-189.5 448.0571,-189.5 "/>
<text text-anchor="middle" x="437.7261" y="-174.3" font-family="Times,serif" font-size="14.00" fill="#000000"> </text>
<polyline fill="none" stroke="#000000" points="427.395,-167.5 448.0571,-167.5 "/>
<text text-anchor="middle" x="437.7261" y="-152.3" font-family="Times,serif" font-size="14.00" fill="#000000"> </text>
<polyline fill="none" stroke="#000000" points="448.0571,-145.5 448.0571,-497.5 "/>
<text text-anchor="middle" x="457.8071" y="-482.3" font-family="Times,serif" font-size="14.00" fill="#000000"> </text>
<polyline fill="none" stroke="#000000" points="448.0571,-475.5 467.5571,-475.5 "/>
<text text-anchor="middle" x="457.8071" y="-460.3" font-family="Times,serif" font-size="14.00" fill="#000000"> </text>
<polyline fill="none" stroke="#000000" points="448.0571,-453.5 467.5571,-453.5 "/>
<text text-anchor="middle" x="457.8071" y="-438.3" font-family="Times,serif" font-size="14.00" fill="#000000"> </text>
<polyline fill="none" stroke="#000000" points="448.0571,-431.5 467.5571,-431.5 "/>
<text text-anchor="middle" x="457.8071" y="-416.3" font-family="Times,serif" font-size="14.00" fill="#000000"> </text>
<polyline fill="none" stroke="#000000" points="448.0571,-409.5 467.5571,-409.5 "/>
<text text-anchor="middle" x="457.8071" y="-394.3" font-family="Times,serif" font-size="14.00" fill="#000000"> </text>
<polyline fill="none" stroke="#000000" points="448.0571,-387.5 467.5571,-387.5 "/>
<text text-anchor="middle" x="457.8071" y="-372.3" font-family="Times,serif" font-size="14.00" fill="#000000"> </text>
<polyline fill="none" stroke="#000000" points="448.0571,-365.5 467.5571,-365.5 "/>
<text text-anchor="middle" x="457.8071" y="-350.3" font-family="Times,serif" font-size="14.00" fill="#000000"> </text>
<polyline fill="none" stroke="#000000" points="448.0571,-343.5 467.5571,-343.5 "/>
<text text-anchor="middle" x="457.8071" y="-328.3" font-family="Times,serif" font-size="14.00" fill="#000000"> </text>
<polyline fill="none" stroke="#000000" points="448.0571,-321.5 467.5571,-321.5 "/>
<text text-anchor="middle" x="457.8071" y="-306.3" font-family="Times,serif" font-size="14.00" fill="#000000"> </text>
<polyline fill="none" stroke="#000000" points="448.0571,-299.5 467.5571,-299.5 "/>
<text text-anchor="middle" x="457.8071" y="-284.3" font-family="Times,serif" font-size="14.00" fill="#000000"> </text>
<polyline fill="none" stroke="#000000" points="448.0571,-277.5 467.5571,-277.5 "/>
<text text-anchor="middle" x="457.8071" y="-262.3" font-family="Times,serif" font-size="14.00" fill="#000000"> </text>
<polyline fill="none" stroke="#000000" points="448.0571,-255.5 467.5571,-255.5 "/>
<text text-anchor="middle" x="457.8071" y="-240.3" font-family="Times,serif" font-size="14.00" fill="#000000"> </text>
<polyline fill="none" stroke="#000000" points="448.0571,-233.5 467.5571,-233.5 "/>
<text text-anchor="middle" x="457.8071" y="-218.3" font-family="Times,serif" font-size="14.00" fill="#000000"> </text>
<polyline fill="none" stroke="#000000" points="448.0571,-211.5 467.5571,-211.5 "/>
<text text-anchor="middle" x="457.8071" y="-196.3" font-family="Times,serif" font-size="14.00" fill="#000000"> </text>
<polyline fill="none" stroke="#000000" points="448.0571,-189.5 467.5571,-189.5 "/>
<text text-anchor="middle" x="457.8071" y="-174.3" font-family="Times,serif" font-size="14.00" fill="#000000"> </text>
<polyline fill="none" stroke="#000000" points="448.0571,-167.5 467.5571,-167.5 "/>
<text text-anchor="middle" x="457.8071" y="-152.3" font-family="Times,serif" font-size="14.00" fill="#000000"> </text>
<polyline fill="none" stroke="#000000" points="467.5571,-145.5 467.5571,-497.5 "/>
<text text-anchor="middle" x="477.3071" y="-482.3" font-family="Times,serif" font-size="14.00" fill="#000000"> </text>
<polyline fill="none" stroke="#000000" points="467.5571,-475.5 487.0571,-475.5 "/>
<text text-anchor="middle" x="477.3071" y="-460.3" font-family="Times,serif" font-size="14.00" fill="#000000"> </text>
<polyline fill="none" stroke="#000000" points="467.5571,-453.5 487.0571,-453.5 "/>
<text text-anchor="middle" x="477.3071" y="-438.3" font-family="Times,serif" font-size="14.00" fill="#000000"> </text>
<polyline fill="none" stroke="#000000" points="467.5571,-431.5 487.0571,-431.5 "/>
<text text-anchor="middle" x="477.3071" y="-416.3" font-family="Times,serif" font-size="14.00" fill="#000000"> </text>
<polyline fill="none" stroke="#000000" points="467.5571,-409.5 487.0571,-409.5 "/>
<text text-anchor="middle" x="477.3071" y="-394.3" font-family="Times,serif" font-size="14.00" fill="#000000"> </text>
<polyline fill="none" stroke="#000000" points="467.5571,-387.5 487.0571,-387.5 "/>
<text text-anchor="middle" x="477.3071" y="-372.3" font-family="Times,serif" font-size="14.00" fill="#000000"> </text>
<polyline fill="none" stroke="#000000" points="467.5571,-365.5 487.0571,-365.5 "/>
<text text-anchor="middle" x="477.3071" y="-350.3" font-family="Times,serif" font-size="14.00" fill="#000000"> </text>
<polyline fill="none" stroke="#000000" points="467.5571,-343.5 487.0571,-343.5 "/>
<text text-anchor="middle" x="477.3071" y="-328.3" font-family="Times,serif" font-size="14.00" fill="#000000"> </text>
<polyline fill="none" stroke="#000000" points="467.5571,-321.5 487.0571,-321.5 "/>
<text text-anchor="middle" x="477.3071" y="-306.3" font-family="Times,serif" font-size="14.00" fill="#000000"> </text>
<polyline fill="none" stroke="#000000" points="467.5571,-299.5 487.0571,-299.5 "/>
<text text-anchor="middle" x="477.3071" y="-284.3" font-family="Times,serif" font-size="14.00" fill="#000000"> </text>
<polyline fill="none" stroke="#000000" points="467.5571,-277.5 487.0571,-277.5 "/>
<text text-anchor="middle" x="477.3071" y="-262.3" font-family="Times,serif" font-size="14.00" fill="#000000"> </text>
<polyline fill="none" stroke="#000000" points="467.5571,-255.5 487.0571,-255.5 "/>
<text text-anchor="middle" x="477.3071" y="-240.3" font-family="Times,serif" font-size="14.00" fill="#000000"> </text>
<polyline fill="none" stroke="#000000" points="467.5571,-233.5 487.0571,-233.5 "/>
<text text-anchor="middle" x="477.3071" y="-218.3" font-family="Times,serif" font-size="14.00" fill="#000000"> </text>
<polyline fill="none" stroke="#000000" points="467.5571,-211.5 487.0571,-211.5 "/>
<text text-anchor="middle" x="477.3071" y="-196.3" font-family="Times,serif" font-size="14.00" fill="#000000"> </text>
<polyline fill="none" stroke="#000000" points="467.5571,-189.5 487.0571,-189.5 "/>
<text text-anchor="middle" x="477.3071" y="-174.3" font-family="Times,serif" font-size="14.00" fill="#000000"> </text>
<polyline fill="none" stroke="#000000" points="467.5571,-167.5 487.0571,-167.5 "/>
<text text-anchor="middle" x="477.3071" y="-152.3" font-family="Times,serif" font-size="14.00" fill="#000000"> </text>
<polyline fill="none" stroke="#000000" points="487.0571,-145.5 487.0571,-497.5 "/>
<text text-anchor="middle" x="496.8071" y="-482.3" font-family="Times,serif" font-size="14.00" fill="#000000"> </text>
<polyline fill="none" stroke="#000000" points="487.0571,-475.5 506.5571,-475.5 "/>
<text text-anchor="middle" x="496.8071" y="-460.3" font-family="Times,serif" font-size="14.00" fill="#000000"> </text>
<polyline fill="none" stroke="#000000" points="487.0571,-453.5 506.5571,-453.5 "/>
<text text-anchor="middle" x="496.8071" y="-438.3" font-family="Times,serif" font-size="14.00" fill="#000000"> </text>
<polyline fill="none" stroke="#000000" points="487.0571,-431.5 506.5571,-431.5 "/>
<text text-anchor="middle" x="496.8071" y="-416.3" font-family="Times,serif" font-size="14.00" fill="#000000"> </text>
<polyline fill="none" stroke="#000000" points="487.0571,-409.5 506.5571,-409.5 "/>
<text text-anchor="middle" x="496.8071" y="-394.3" font-family="Times,serif" font-size="14.00" fill="#000000"> </text>
<polyline fill="none" stroke="#000000" points="487.0571,-387.5 506.5571,-387.5 "/>
<text text-anchor="middle" x="496.8071" y="-372.3" font-family="Times,serif" font-size="14.00" fill="#000000"> </text>
<polyline fill="none" stroke="#000000" points="487.0571,-365.5 506.5571,-365.5 "/>
<text text-anchor="middle" x="496.8071" y="-350.3" font-family="Times,serif" font-size="14.00" fill="#000000"> </text>
<polyline fill="none" stroke="#000000" points="487.0571,-343.5 506.5571,-343.5 "/>
<text text-anchor="middle" x="496.8071" y="-328.3" font-family="Times,serif" font-size="14.00" fill="#000000"> </text>
<polyline fill="none" stroke="#000000" points="487.0571,-321.5 506.5571,-321.5 "/>
<text text-anchor="middle" x="496.8071" y="-306.3" font-family="Times,serif" font-size="14.00" fill="#000000"> </text>
<polyline fill="none" stroke="#000000" points="487.0571,-299.5 506.5571,-299.5 "/>
<text text-anchor="middle" x="496.8071" y="-284.3" font-family="Times,serif" font-size="14.00" fill="#000000"> </text>
<polyline fill="none" stroke="#000000" points="487.0571,-277.5 506.5571,-277.5 "/>
<text text-anchor="middle" x="496.8071" y="-262.3" font-family="Times,serif" font-size="14.00" fill="#000000"> </text>
<polyline fill="none" stroke="#000000" points="487.0571,-255.5 506.5571,-255.5 "/>
<text text-anchor="middle" x="496.8071" y="-240.3" font-family="Times,serif" font-size="14.00" fill="#000000"> </text>
<polyline fill="none" stroke="#000000" points="487.0571,-233.5 506.5571,-233.5 "/>
<text text-anchor="middle" x="496.8071" y="-218.3" font-family="Times,serif" font-size="14.00" fill="#000000"> </text>
<polyline fill="none" stroke="#000000" points="487.0571,-211.5 506.5571,-211.5 "/>
<text text-anchor="middle" x="496.8071" y="-196.3" font-family="Times,serif" font-size="14.00" fill="#000000"> </text>
<polyline fill="none" stroke="#000000" points="487.0571,-189.5 506.5571,-189.5 "/>
<text text-anchor="middle" x="496.8071" y="-174.3" font-family="Times,serif" font-size="14.00" fill="#000000"> </text>
<polyline fill="none" stroke="#000000" points="487.0571,-167.5 506.5571,-167.5 "/>
<text text-anchor="middle" x="496.8071" y="-152.3" font-family="Times,serif" font-size="14.00" fill="#000000"> </text>
<polyline fill="none" stroke="#000000" points="506.5571,-145.5 506.5571,-497.5 "/>
<text text-anchor="middle" x="516.3071" y="-482.3" font-family="Times,serif" font-size="14.00" fill="#000000"> </text>
<polyline fill="none" stroke="#000000" points="506.5571,-475.5 526.0571,-475.5 "/>
<text text-anchor="middle" x="516.3071" y="-460.3" font-family="Times,serif" font-size="14.00" fill="#000000"> </text>
<polyline fill="none" stroke="#000000" points="506.5571,-453.5 526.0571,-453.5 "/>
<text text-anchor="middle" x="516.3071" y="-438.3" font-family="Times,serif" font-size="14.00" fill="#000000"> </text>
<polyline fill="none" stroke="#000000" points="506.5571,-431.5 526.0571,-431.5 "/>
<text text-anchor="middle" x="516.3071" y="-416.3" font-family="Times,serif" font-size="14.00" fill="#000000"> </text>
<polyline fill="none" stroke="#000000" points="506.5571,-409.5 526.0571,-409.5 "/>
<text text-anchor="middle" x="516.3071" y="-394.3" font-family="Times,serif" font-size="14.00" fill="#000000"> </text>
<polyline fill="none" stroke="#000000" points="506.5571,-387.5 526.0571,-387.5 "/>
<text text-anchor="middle" x="516.3071" y="-372.3" font-family="Times,serif" font-size="14.00" fill="#000000"> </text>
<polyline fill="none" stroke="#000000" points="506.5571,-365.5 526.0571,-365.5 "/>
<text text-anchor="middle" x="516.3071" y="-350.3" font-family="Times,serif" font-size="14.00" fill="#000000"> </text>
<polyline fill="none" stroke="#000000" points="506.5571,-343.5 526.0571,-343.5 "/>
<text text-anchor="middle" x="516.3071" y="-328.3" font-family="Times,serif" font-size="14.00" fill="#000000"> </text>
<polyline fill="none" stroke="#000000" points="506.5571,-321.5 526.0571,-321.5 "/>
<text text-anchor="middle" x="516.3071" y="-306.3" font-family="Times,serif" font-size="14.00" fill="#000000"> </text>
<polyline fill="none" stroke="#000000" points="506.5571,-299.5 526.0571,-299.5 "/>
<text text-anchor="middle" x="516.3071" y="-284.3" font-family="Times,serif" font-size="14.00" fill="#000000"> </text>
<polyline fill="none" stroke="#000000" points="506.5571,-277.5 526.0571,-277.5 "/>
<text text-anchor="middle" x="516.3071" y="-262.3" font-family="Times,serif" font-size="14.00" fill="#000000"> </text>
<polyline fill="none" stroke="#000000" points="506.5571,-255.5 526.0571,-255.5 "/>
<text text-anchor="middle" x="516.3071" y="-240.3" font-family="Times,serif" font-size="14.00" fill="#000000"> </text>
<polyline fill="none" stroke="#000000" points="506.5571,-233.5 526.0571,-233.5 "/>
<text text-anchor="middle" x="516.3071" y="-218.3" font-family="Times,serif" font-size="14.00" fill="#000000"> </text>
<polyline fill="none" stroke="#000000" points="506.5571,-211.5 526.0571,-211.5 "/>
<text text-anchor="middle" x="516.3071" y="-196.3" font-family="Times,serif" font-size="14.00" fill="#000000"> </text>
<polyline fill="none" stroke="#000000" points="506.5571,-189.5 526.0571,-189.5 "/>
<text text-anchor="middle" x="516.3071" y="-174.3" font-family="Times,serif" font-size="14.00" fill="#000000"> </text>
<polyline fill="none" stroke="#000000" points="506.5571,-167.5 526.0571,-167.5 "/>
<text text-anchor="middle" x="516.3071" y="-152.3" font-family="Times,serif" font-size="14.00" fill="#000000"> </text>
<polyline fill="none" stroke="#000000" points="526.0571,-145.5 526.0571,-497.5 "/>
<text text-anchor="middle" x="535.8071" y="-482.3" font-family="Times,serif" font-size="14.00" fill="#000000"> </text>
<polyline fill="none" stroke="#000000" points="526.0571,-475.5 545.5571,-475.5 "/>
<text text-anchor="middle" x="535.8071" y="-460.3" font-family="Times,serif" font-size="14.00" fill="#000000"> </text>
<polyline fill="none" stroke="#000000" points="526.0571,-453.5 545.5571,-453.5 "/>
<text text-anchor="middle" x="535.8071" y="-438.3" font-family="Times,serif" font-size="14.00" fill="#000000"> </text>
<polyline fill="none" stroke="#000000" points="526.0571,-431.5 545.5571,-431.5 "/>
<text text-anchor="middle" x="535.8071" y="-416.3" font-family="Times,serif" font-size="14.00" fill="#000000"> </text>
<polyline fill="none" stroke="#000000" points="526.0571,-409.5 545.5571,-409.5 "/>
<text text-anchor="middle" x="535.8071" y="-394.3" font-family="Times,serif" font-size="14.00" fill="#000000"> </text>
<polyline fill="none" stroke="#000000" points="526.0571,-387.5 545.5571,-387.5 "/>
<text text-anchor="middle" x="535.8071" y="-372.3" font-family="Times,serif" font-size="14.00" fill="#000000"> </text>
<polyline fill="none" stroke="#000000" points="526.0571,-365.5 545.5571,-365.5 "/>
<text text-anchor="middle" x="535.8071" y="-350.3" font-family="Times,serif" font-size="14.00" fill="#000000"> </text>
<polyline fill="none" stroke="#000000" points="526.0571,-343.5 545.5571,-343.5 "/>
<text text-anchor="middle" x="535.8071" y="-328.3" font-family="Times,serif" font-size="14.00" fill="#000000"> </text>
<polyline fill="none" stroke="#000000" points="526.0571,-321.5 545.5571,-321.5 "/>
<text text-anchor="middle" x="535.8071" y="-306.3" font-family="Times,serif" font-size="14.00" fill="#000000"> </text>
<polyline fill="none" stroke="#000000" points="526.0571,-299.5 545.5571,-299.5 "/>
<text text-anchor="middle" x="535.8071" y="-284.3" font-family="Times,serif" font-size="14.00" fill="#000000"> </text>
<polyline fill="none" stroke="#000000" points="526.0571,-277.5 545.5571,-277.5 "/>
<text text-anchor="middle" x="535.8071" y="-262.3" font-family="Times,serif" font-size="14.00" fill="#000000"> </text>
<polyline fill="none" stroke="#000000" points="526.0571,-255.5 545.5571,-255.5 "/>
<text text-anchor="middle" x="535.8071" y="-240.3" font-family="Times,serif" font-size="14.00" fill="#000000"> </text>
<polyline fill="none" stroke="#000000" points="526.0571,-233.5 545.5571,-233.5 "/>
<text text-anchor="middle" x="535.8071" y="-218.3" font-family="Times,serif" font-size="14.00" fill="#000000"> </text>
<polyline fill="none" stroke="#000000" points="526.0571,-211.5 545.5571,-211.5 "/>
<text text-anchor="middle" x="535.8071" y="-196.3" font-family="Times,serif" font-size="14.00" fill="#000000"> </text>
<polyline fill="none" stroke="#000000" points="526.0571,-189.5 545.5571,-189.5 "/>
<text text-anchor="middle" x="535.8071" y="-174.3" font-family="Times,serif" font-size="14.00" fill="#000000"> </text>
<polyline fill="none" stroke="#000000" points="526.0571,-167.5 545.5571,-167.5 "/>
<text text-anchor="middle" x="535.8071" y="-152.3" font-family="Times,serif" font-size="14.00" fill="#000000"> </text>
<polyline fill="none" stroke="#000000" points="545.5571,-145.5 545.5571,-497.5 "/>
<text text-anchor="middle" x="555.3071" y="-482.3" font-family="Times,serif" font-size="14.00" fill="#000000"> </text>
<polyline fill="none" stroke="#000000" points="545.5571,-475.5 565.0571,-475.5 "/>
<text text-anchor="middle" x="555.3071" y="-460.3" font-family="Times,serif" font-size="14.00" fill="#000000"> </text>
<polyline fill="none" stroke="#000000" points="545.5571,-453.5 565.0571,-453.5 "/>
<text text-anchor="middle" x="555.3071" y="-438.3" font-family="Times,serif" font-size="14.00" fill="#000000"> </text>
<polyline fill="none" stroke="#000000" points="545.5571,-431.5 565.0571,-431.5 "/>
<text text-anchor="middle" x="555.3071" y="-416.3" font-family="Times,serif" font-size="14.00" fill="#000000"> </text>
<polyline fill="none" stroke="#000000" points="545.5571,-409.5 565.0571,-409.5 "/>
<text text-anchor="middle" x="555.3071" y="-394.3" font-family="Times,serif" font-size="14.00" fill="#000000"> </text>
<polyline fill="none" stroke="#000000" points="545.5571,-387.5 565.0571,-387.5 "/>
<text text-anchor="middle" x="555.3071" y="-372.3" font-family="Times,serif" font-size="14.00" fill="#000000"> </text>
<polyline fill="none" stroke="#000000" points="545.5571,-365.5 565.0571,-365.5 "/>
<text text-anchor="middle" x="555.3071" y="-350.3" font-family="Times,serif" font-size="14.00" fill="#000000"> </text>
<polyline fill="none" stroke="#000000" points="545.5571,-343.5 565.0571,-343.5 "/>
<text text-anchor="middle" x="555.3071" y="-328.3" font-family="Times,serif" font-size="14.00" fill="#000000"> </text>
<polyline fill="none" stroke="#000000" points="545.5571,-321.5 565.0571,-321.5 "/>
<text text-anchor="middle" x="555.3071" y="-306.3" font-family="Times,serif" font-size="14.00" fill="#000000"> </text>
<polyline fill="none" stroke="#000000" points="545.5571,-299.5 565.0571,-299.5 "/>
<text text-anchor="middle" x="555.3071" y="-284.3" font-family="Times,serif" font-size="14.00" fill="#000000"> </text>
<polyline fill="none" stroke="#000000" points="545.5571,-277.5 565.0571,-277.5 "/>
<text text-anchor="middle" x="555.3071" y="-262.3" font-family="Times,serif" font-size="14.00" fill="#000000"> </text>
<polyline fill="none" stroke="#000000" points="545.5571,-255.5 565.0571,-255.5 "/>
<text text-anchor="middle" x="555.3071" y="-240.3" font-family="Times,serif" font-size="14.00" fill="#000000"> </text>
<polyline fill="none" stroke="#000000" points="545.5571,-233.5 565.0571,-233.5 "/>
<text text-anchor="middle" x="555.3071" y="-218.3" font-family="Times,serif" font-size="14.00" fill="#000000"> </text>
<polyline fill="none" stroke="#000000" points="545.5571,-211.5 565.0571,-211.5 "/>
<text text-anchor="middle" x="555.3071" y="-196.3" font-family="Times,serif" font-size="14.00" fill="#000000"> </text>
<polyline fill="none" stroke="#000000" points="545.5571,-189.5 565.0571,-189.5 "/>
<text text-anchor="middle" x="555.3071" y="-174.3" font-family="Times,serif" font-size="14.00" fill="#000000"> </text>
<polyline fill="none" stroke="#000000" points="545.5571,-167.5 565.0571,-167.5 "/>
<text text-anchor="middle" x="555.3071" y="-152.3" font-family="Times,serif" font-size="14.00" fill="#000000"> </text>
<polyline fill="none" stroke="#000000" points="565.0571,-145.5 565.0571,-497.5 "/>
<text text-anchor="middle" x="574.8071" y="-482.3" font-family="Times,serif" font-size="14.00" fill="#000000"> </text>
<polyline fill="none" stroke="#000000" points="565.0571,-475.5 584.5571,-475.5 "/>
<text text-anchor="middle" x="574.8071" y="-460.3" font-family="Times,serif" font-size="14.00" fill="#000000"> </text>
<polyline fill="none" stroke="#000000" points="565.0571,-453.5 584.5571,-453.5 "/>
<text text-anchor="middle" x="574.8071" y="-438.3" font-family="Times,serif" font-size="14.00" fill="#000000"> </text>
<polyline fill="none" stroke="#000000" points="565.0571,-431.5 584.5571,-431.5 "/>
<text text-anchor="middle" x="574.8071" y="-416.3" font-family="Times,serif" font-size="14.00" fill="#000000"> </text>
<polyline fill="none" stroke="#000000" points="565.0571,-409.5 584.5571,-409.5 "/>
<text text-anchor="middle" x="574.8071" y="-394.3" font-family="Times,serif" font-size="14.00" fill="#000000"> </text>
<polyline fill="none" stroke="#000000" points="565.0571,-387.5 584.5571,-387.5 "/>
<text text-anchor="middle" x="574.8071" y="-372.3" font-family="Times,serif" font-size="14.00" fill="#000000"> </text>
<polyline fill="none" stroke="#000000" points="565.0571,-365.5 584.5571,-365.5 "/>
<text text-anchor="middle" x="574.8071" y="-350.3" font-family="Times,serif" font-size="14.00" fill="#000000"> </text>
<polyline fill="none" stroke="#000000" points="565.0571,-343.5 584.5571,-343.5 "/>
<text text-anchor="middle" x="574.8071" y="-328.3" font-family="Times,serif" font-size="14.00" fill="#000000"> </text>
<polyline fill="none" stroke="#000000" points="565.0571,-321.5 584.5571,-321.5 "/>
<text text-anchor="middle" x="574.8071" y="-306.3" font-family="Times,serif" font-size="14.00" fill="#000000"> </text>
<polyline fill="none" stroke="#000000" points="565.0571,-299.5 584.5571,-299.5 "/>
<text text-anchor="middle" x="574.8071" y="-284.3" font-family="Times,serif" font-size="14.00" fill="#000000"> </text>
<polyline fill="none" stroke="#000000" points="565.0571,-277.5 584.5571,-277.5 "/>
<text text-anchor="middle" x="574.8071" y="-262.3" font-family="Times,serif" font-size="14.00" fill="#000000"> </text>
<polyline fill="none" stroke="#000000" points="565.0571,-255.5 584.5571,-255.5 "/>
<text text-anchor="middle" x="574.8071" y="-240.3" font-family="Times,serif" font-size="14.00" fill="#000000"> </text>
<polyline fill="none" stroke="#000000" points="565.0571,-233.5 584.5571,-233.5 "/>
<text text-anchor="middle" x="574.8071" y="-218.3" font-family="Times,serif" font-size="14.00" fill="#000000"> </text>
<polyline fill="none" stroke="#000000" points="565.0571,-211.5 584.5571,-211.5 "/>
<text text-anchor="middle" x="574.8071" y="-196.3" font-family="Times,serif" font-size="14.00" fill="#000000"> </text>
<polyline fill="none" stroke="#000000" points="565.0571,-189.5 584.5571,-189.5 "/>
<text text-anchor="middle" x="574.8071" y="-174.3" font-family="Times,serif" font-size="14.00" fill="#000000"> </text>
<polyline fill="none" stroke="#000000" points="565.0571,-167.5 584.5571,-167.5 "/>
<text text-anchor="middle" x="574.8071" y="-152.3" font-family="Times,serif" font-size="14.00" fill="#000000"> </text>
</g>
</g>
</svg>
