<?xml version="1.0" encoding="UTF-8" standalone="no"?>
<!DOCTYPE svg PUBLIC "-//W3C//DTD SVG 1.1//EN"
 "http://www.w3.org/Graphics/SVG/1.1/DTD/svg11.dtd">
<!-- Generated by graphviz version 2.40.1 (20161225.0304)
 -->
<!-- Title: %3 Pages: 1 -->
<svg width="196pt" height="316pt"
 viewBox="0.00 0.00 196.00 316.00" xmlns="http://www.w3.org/2000/svg" xmlns:xlink="http://www.w3.org/1999/xlink">
<g id="graph0" class="graph" transform="scale(1 1) rotate(0) translate(4 312)">
<title>%3</title>
<polygon fill="#ffffff" stroke="transparent" points="-4,4 -4,-312 192,-312 192,4 -4,4"/>
<g id="clust1" class="cluster">
<title>cluster_0</title>
<polygon fill="none" stroke="#000000" points="8,-8 8,-300 90,-300 90,-8 8,-8"/>
<text text-anchor="middle" x="49" y="-284.8" font-family="Times,serif" font-size="14.00" fill="#000000">Subgraph A</text>
</g>
<g id="clust2" class="cluster">
<title>cluster_1</title>
<polygon fill="none" stroke="#000000" points="98,-152 98,-226 180,-226 180,-152 98,-152"/>
<text text-anchor="middle" x="139" y="-210.8" font-family="Times,serif" font-size="14.00" fill="#000000">Subgraph B</text>
</g>
<!-- a -->
<g id="node1" class="node">
<title>a</title>
<ellipse fill="none" stroke="#000000" cx="55" cy="-252" rx="27" ry="18"/>
<text text-anchor="middle" x="55" y="-247.8" font-family="Times,serif" font-size="14.00" fill="#000000">a</text>
</g>
<!-- b -->
<g id="node2" class="node">
<title>b</title>
<ellipse fill="none" stroke="#000000" cx="55" cy="-178" rx="27" ry="18"/>
<text text-anchor="middle" x="55" y="-173.8" font-family="Times,serif" font-size="14.00" fill="#000000">b</text>
</g>
<!-- a&#45;&gt;b -->
<g id="edge1" class="edge">
<title>a&#45;&gt;b</title>
<path fill="none" stroke="#000000" d="M55,-233.7079C55,-225.4635 55,-215.5376 55,-206.3622"/>
<polygon fill="#000000" stroke="#000000" points="58.5001,-206.0817 55,-196.0817 51.5001,-206.0818 58.5001,-206.0817"/>
</g>
<!-- f -->
<g id="node5" class="node">
<title>f</title>
<ellipse fill="none" stroke="#000000" cx="133" cy="-178" rx="27" ry="18"/>
<text text-anchor="middle" x="133" y="-173.8" font-family="Times,serif" font-size="14.00" fill="#000000">f</text>
</g>
<!-- a&#45;&gt;f -->
<g id="edge4" class="edge">
<title>a&#45;&gt;f</title>
<path fill="none" stroke="#000000" d="M75.692,-239.8634C81.8683,-235.8133 88.4626,-231.0383 94,-226 101.6626,-219.028 109.0892,-210.4931 115.3691,-202.5637"/>
<polygon fill="#000000" stroke="#000000" points="118.1585,-204.6779 121.4602,-194.6106 112.6011,-200.4216 118.1585,-204.6779"/>
</g>
<!-- c -->
<g id="node3" class="node">
<title>c</title>
<ellipse fill="none" stroke="#000000" cx="55" cy="-106" rx="27" ry="18"/>
<text text-anchor="middle" x="55" y="-101.8" font-family="Times,serif" font-size="14.00" fill="#000000">c</text>
</g>
<!-- b&#45;&gt;c -->
<g id="edge2" class="edge">
<title>b&#45;&gt;c</title>
<path fill="none" stroke="#000000" d="M55,-159.8314C55,-152.131 55,-142.9743 55,-134.4166"/>
<polygon fill="#000000" stroke="#000000" points="58.5001,-134.4132 55,-124.4133 51.5001,-134.4133 58.5001,-134.4132"/>
</g>
<!-- d -->
<g id="node4" class="node">
<title>d</title>
<ellipse fill="none" stroke="#000000" cx="55" cy="-34" rx="27" ry="18"/>
<text text-anchor="middle" x="55" y="-29.8" font-family="Times,serif" font-size="14.00" fill="#000000">d</text>
</g>
<!-- c&#45;&gt;d -->
<g id="edge3" class="edge">
<title>c&#45;&gt;d</title>
<path fill="none" stroke="#000000" d="M55,-87.8314C55,-80.131 55,-70.9743 55,-62.4166"/>
<polygon fill="#000000" stroke="#000000" points="58.5001,-62.4132 55,-52.4133 51.5001,-62.4133 58.5001,-62.4132"/>
</g>
<!-- f&#45;&gt;c -->
<g id="edge5" class="edge">
<title>f&#45;&gt;c</title>
<path fill="none" stroke="#000000" d="M116.8383,-163.0816C105.6786,-152.7802 90.6666,-138.923 78.2285,-127.4417"/>
<polygon fill="#000000" stroke="#000000" points="80.5961,-124.864 70.8741,-120.653 75.8481,-130.0076 80.5961,-124.864"/>
</g>
</g>
</svg>
